<mxfile host="Electron" modified="2023-05-03T13:40:38.009Z" agent="Mozilla/5.0 (Windows NT 10.0; Win64; x64) AppleWebKit/537.36 (KHTML, like Gecko) draw.io/21.2.1 Chrome/112.0.5615.87 Electron/24.1.2 Safari/537.36" etag="NhABeZrhe7CPzHSt3FTO" version="21.2.1" type="device">
  <diagram name="第 1 页" id="indisLRFP4kBTXNJLHcs">
    <mxGraphModel dx="1725" dy="579" grid="1" gridSize="10" guides="1" tooltips="1" connect="1" arrows="1" fold="1" page="1" pageScale="1" pageWidth="827" pageHeight="1169" math="0" shadow="0">
      <root>
        <mxCell id="0" />
        <mxCell id="1" parent="0" />
        <mxCell id="TZQG_eTM_Jlkd09ifVAf-1" value="&lt;font color=&quot;#ffffff&quot;&gt;&lt;span style=&quot;font-size: 18px;&quot;&gt;&lt;b&gt;Unmodified&lt;/b&gt;&lt;/span&gt;&lt;/font&gt;" style="rounded=0;whiteSpace=wrap;html=1;fillColor=#ff5a26;shadow=1;strokeColor=none;" parent="1" vertex="1">
          <mxGeometry x="170" y="140" width="170" height="60" as="geometry" />
        </mxCell>
        <mxCell id="TZQG_eTM_Jlkd09ifVAf-2" value="&lt;font color=&quot;#ffffff&quot;&gt;&lt;span style=&quot;font-size: 18px;&quot;&gt;&lt;b&gt;Modified&lt;/b&gt;&lt;/span&gt;&lt;/font&gt;" style="rounded=0;whiteSpace=wrap;html=1;fillColor=#0083a0;shadow=1;strokeColor=none;" parent="1" vertex="1">
          <mxGeometry x="380" y="140" width="170" height="60" as="geometry" />
        </mxCell>
        <mxCell id="TZQG_eTM_Jlkd09ifVAf-3" value="&lt;font color=&quot;#ffffff&quot;&gt;&lt;span style=&quot;font-size: 18px;&quot;&gt;&lt;b&gt;Staged&lt;br&gt;&lt;/b&gt;&lt;/span&gt;&lt;/font&gt;" style="rounded=0;whiteSpace=wrap;html=1;fillColor=#d59c00;shadow=1;strokeColor=none;" parent="1" vertex="1">
          <mxGeometry x="590" y="140" width="170" height="60" as="geometry" />
        </mxCell>
        <mxCell id="TZQG_eTM_Jlkd09ifVAf-4" value="" style="endArrow=none;html=1;rounded=0;entryX=0.5;entryY=1;entryDx=0;entryDy=0;strokeWidth=2;" parent="1" target="TZQG_eTM_Jlkd09ifVAf-1" edge="1">
          <mxGeometry width="50" height="50" relative="1" as="geometry">
            <mxPoint x="255" y="400" as="sourcePoint" />
            <mxPoint x="420" y="260" as="targetPoint" />
          </mxGeometry>
        </mxCell>
        <mxCell id="TZQG_eTM_Jlkd09ifVAf-5" value="" style="endArrow=none;html=1;rounded=0;entryX=0.5;entryY=1;entryDx=0;entryDy=0;strokeWidth=2;" parent="1" edge="1">
          <mxGeometry width="50" height="50" relative="1" as="geometry">
            <mxPoint x="464.5" y="400" as="sourcePoint" />
            <mxPoint x="464.5" y="200" as="targetPoint" />
          </mxGeometry>
        </mxCell>
        <mxCell id="TZQG_eTM_Jlkd09ifVAf-6" value="" style="endArrow=none;html=1;rounded=0;entryX=0.5;entryY=1;entryDx=0;entryDy=0;strokeWidth=2;" parent="1" edge="1">
          <mxGeometry width="50" height="50" relative="1" as="geometry">
            <mxPoint x="680" y="400" as="sourcePoint" />
            <mxPoint x="680" y="200" as="targetPoint" />
          </mxGeometry>
        </mxCell>
        <mxCell id="TZQG_eTM_Jlkd09ifVAf-7" value="" style="shape=flexArrow;endArrow=classic;html=1;rounded=0;width=36;endSize=30.03;strokeColor=none;fillColor=#918881;endWidth=17;" parent="1" edge="1">
          <mxGeometry width="50" height="50" relative="1" as="geometry">
            <mxPoint x="255" y="260" as="sourcePoint" />
            <mxPoint x="465" y="260" as="targetPoint" />
          </mxGeometry>
        </mxCell>
        <mxCell id="TZQG_eTM_Jlkd09ifVAf-12" value="&lt;span style=&quot;font-size: 18px;&quot;&gt;&lt;b&gt;&lt;font color=&quot;#ffffff&quot;&gt;Edit the file&lt;/font&gt;&lt;/b&gt;&lt;/span&gt;" style="edgeLabel;html=1;align=center;verticalAlign=middle;resizable=0;points=[];labelBackgroundColor=none;" parent="TZQG_eTM_Jlkd09ifVAf-7" vertex="1" connectable="0">
          <mxGeometry x="-0.143" y="3" relative="1" as="geometry">
            <mxPoint x="-5" y="3" as="offset" />
          </mxGeometry>
        </mxCell>
        <mxCell id="TZQG_eTM_Jlkd09ifVAf-14" value="" style="shape=flexArrow;endArrow=classic;html=1;rounded=0;width=38;endSize=17.85;strokeColor=none;fillColor=#918881;endWidth=17;" parent="1" edge="1">
          <mxGeometry width="50" height="50" relative="1" as="geometry">
            <mxPoint x="680" y="366" as="sourcePoint" />
            <mxPoint x="252" y="366" as="targetPoint" />
          </mxGeometry>
        </mxCell>
        <mxCell id="TZQG_eTM_Jlkd09ifVAf-15" value="&lt;b&gt;&lt;font style=&quot;font-size: 18px;&quot;&gt;运行&lt;/font&gt;&lt;font color=&quot;#ffffff&quot; style=&quot;font-size: 18px;&quot;&gt; git commit -m &quot;提交消息&quot; &lt;/font&gt;&lt;font style=&quot;font-size: 18px;&quot;&gt;命令，提交更新&lt;br&gt;&lt;/font&gt;&lt;/b&gt;" style="edgeLabel;html=1;align=center;verticalAlign=middle;resizable=0;points=[];labelBackgroundColor=none;" parent="TZQG_eTM_Jlkd09ifVAf-14" vertex="1" connectable="0">
          <mxGeometry x="-0.143" y="3" relative="1" as="geometry">
            <mxPoint x="-20" y="-4" as="offset" />
          </mxGeometry>
        </mxCell>
        <mxCell id="iFu_FdATjJb65iyfEFZR-1" value="&lt;span style=&quot;font-size: 18px;&quot;&gt;&lt;b&gt;Untracked&lt;/b&gt;&lt;/span&gt;" style="rounded=0;whiteSpace=wrap;html=1;fillColor=#eeece6;shadow=1;strokeColor=none;" parent="1" vertex="1">
          <mxGeometry x="-40" y="140" width="170" height="60" as="geometry" />
        </mxCell>
        <mxCell id="iFu_FdATjJb65iyfEFZR-2" value="" style="endArrow=none;html=1;rounded=0;entryX=0.5;entryY=1;entryDx=0;entryDy=0;strokeWidth=2;" parent="1" edge="1">
          <mxGeometry width="50" height="50" relative="1" as="geometry">
            <mxPoint x="44.5" y="400" as="sourcePoint" />
            <mxPoint x="44.5" y="200" as="targetPoint" />
          </mxGeometry>
        </mxCell>
        <mxCell id="iFu_FdATjJb65iyfEFZR-3" value="&lt;font color=&quot;#ffffff&quot; style=&quot;font-size: 16px;&quot;&gt;&lt;b&gt;1&lt;/b&gt;&lt;/font&gt;" style="ellipse;whiteSpace=wrap;html=1;aspect=fixed;strokeWidth=3;fontFamily=Tahoma;spacingBottom=4;spacingRight=2;strokeColor=#d3d3d3;fillColor=#FF0000;" parent="1" vertex="1">
          <mxGeometry x="216" y="245" width="30" height="30" as="geometry" />
        </mxCell>
        <mxCell id="iFu_FdATjJb65iyfEFZR-4" value="&lt;font color=&quot;#ffffff&quot; style=&quot;font-size: 16px;&quot;&gt;&lt;b&gt;2&lt;/b&gt;&lt;/font&gt;" style="ellipse;whiteSpace=wrap;html=1;aspect=fixed;strokeWidth=3;fontFamily=Tahoma;spacingBottom=4;spacingRight=2;strokeColor=#d3d3d3;fillColor=#FF0000;" parent="1" vertex="1">
          <mxGeometry x="426" y="286" width="30" height="30" as="geometry" />
        </mxCell>
        <mxCell id="dVUMroadtmChlmE0l_X3-1" value="" style="shape=flexArrow;endArrow=classic;html=1;rounded=0;width=36;endSize=30.03;strokeColor=none;fillColor=#918881;endWidth=17;" edge="1" parent="1">
          <mxGeometry width="50" height="50" relative="1" as="geometry">
            <mxPoint x="465" y="300" as="sourcePoint" />
            <mxPoint x="675" y="300" as="targetPoint" />
          </mxGeometry>
        </mxCell>
        <mxCell id="dVUMroadtmChlmE0l_X3-2" value="&lt;span style=&quot;font-size: 18px;&quot;&gt;&lt;b&gt;&lt;font color=&quot;#ffffff&quot;&gt;Stage the file&lt;/font&gt;&lt;/b&gt;&lt;/span&gt;" style="edgeLabel;html=1;align=center;verticalAlign=middle;resizable=0;points=[];labelBackgroundColor=none;" vertex="1" connectable="0" parent="dVUMroadtmChlmE0l_X3-1">
          <mxGeometry x="-0.143" y="3" relative="1" as="geometry">
            <mxPoint x="-5" y="3" as="offset" />
          </mxGeometry>
        </mxCell>
        <mxCell id="dVUMroadtmChlmE0l_X3-3" value="&lt;div style=&quot;text-align: left;&quot;&gt;&lt;span style=&quot;font-size: 16px; background-color: initial;&quot;&gt;&lt;b&gt;将修改过后的文件的快照放入暂存区：&lt;/b&gt;&lt;/span&gt;&lt;/div&gt;&lt;div style=&quot;text-align: left;&quot;&gt;&lt;span style=&quot;background-color: initial;&quot;&gt;&lt;font style=&quot;font-size: 16px;&quot; color=&quot;#ff0000&quot;&gt;&lt;b&gt;git add index.html&lt;/b&gt;&lt;/font&gt;&lt;/span&gt;&lt;/div&gt;" style="text;html=1;strokeColor=none;fillColor=none;align=center;verticalAlign=middle;whiteSpace=wrap;rounded=0;" vertex="1" parent="1">
          <mxGeometry x="498" y="210" width="193" height="50" as="geometry" />
        </mxCell>
        <mxCell id="dVUMroadtmChlmE0l_X3-4" value="&lt;font color=&quot;#ffffff&quot; style=&quot;font-size: 16px;&quot;&gt;&lt;b&gt;3&lt;/b&gt;&lt;/font&gt;" style="ellipse;whiteSpace=wrap;html=1;aspect=fixed;strokeWidth=3;fontFamily=Tahoma;spacingBottom=4;spacingRight=2;strokeColor=#d3d3d3;fillColor=#FF0000;" vertex="1" parent="1">
          <mxGeometry x="688" y="353" width="30" height="30" as="geometry" />
        </mxCell>
      </root>
    </mxGraphModel>
  </diagram>
</mxfile>
